<svg xmlns="http://www.w3.org/2000/svg" viewBox="0 0 280 160"><defs><style>.cls-1{fill:#36b593;}.cls-2{fill:#2d967c;}.cls-3{fill:#3dc9a4;}.cls-4{fill:#fff;}</style></defs><g id="Layer_1" data-name="Layer 1"><path d="M257,37.64v90.14H32.81V37.64H257m9.24-9.24H23.57V137H266.24V28.4Z"/><polygon class="cls-1" points="257 127.78 240.82 112.02 240.82 21.46 257 37.64 257 127.78"/><polygon class="cls-2" points="256.84 127.78 32.81 127.78 16.63 111.6 241.02 111.6 256.84 127.78"/><rect class="cls-3" x="16.63" y="21.46" width="224.19" height="90.14"/><path class="cls-4" d="M56.2,84.08v-4h-4v-4h-4V64h4V60h4V56H72.33v4h4v4H68.3V60H60.24v4h-4v12h4v4H68.3v-4h8.06v4h-4v4Z"/><path class="cls-4" d="M84.42,84.08V56h8.06v24h16.13v4Z"/><path class="cls-4" d="M112.64,84.08V64h4V60h4V56h12.1v4h4v4h4v20H132.8v-8H120.7v8Zm8.06-12h12.1V64h-4V60h-4v4h-4Z"/><path class="cls-4" d="M148.92,84.08v-4H157V60h-8.06V56h24.19v4h-8.06v20h8.06v4Z"/><path class="cls-4" d="M177.14,84.08V56h8.06v4h4v4h4V60h4V56h8.07V84.08h-8.07v-16h-4v8h-4v-8h-4v16Z"/></g></svg>