<svg xmlns="http://www.w3.org/2000/svg" xmlns:xlink="http://www.w3.org/1999/xlink" viewBox="0 0 280 160"><defs><style>.cls-1{fill:url(#linear-gradient);}.cls-2{fill:url(#linear-gradient-2);}.cls-3{font-size:13.25px;font-family:PressStart2P-Regular, "Press Start 2P";}.cls-3,.cls-4{fill:#fff;}.cls-5{font-size:17.63px;font-family:VT323-Regular, VT323;}</style><linearGradient id="linear-gradient" x1="138.54" y1="117.89" x2="138.54" y2="23.98" gradientUnits="userSpaceOnUse"><stop offset="0" stop-color="#009b8a"/><stop offset="0" stop-color="#6657a0"/><stop offset="0.51" stop-color="#c8329e"/><stop offset="1" stop-color="#f44074"/></linearGradient><linearGradient id="linear-gradient-2" x1="137.52" y1="58.62" x2="137.52" y2="41.11" gradientUnits="userSpaceOnUse"><stop offset="0" stop-color="#96c"/><stop offset="1" stop-color="#d0a2ff"/></linearGradient></defs><g id="Layer_1" data-name="Layer 1"><rect x="10.55" y="26.8" width="261.61" height="93.91"/><path d="M271.36,27.61v92.3h-260V27.61h260M273,26H9.75v95.52H273V26Z"/><rect class="cls-1" x="7.73" y="23.98" width="261.61" height="93.91"/><path d="M268.54,24.79v92.3H8.54V24.79h260m1.61-1.61H6.93V118.7H270.15V23.18Z"/><path d="M90.66,43.07v2.41H88.24v4.84H85.82v2.42h2.42v4.84h2.42V60H85.82V57.58H83.4V52.74H81V50.32H83.4V45.48h2.42V43.07h4.84m1.17-1.18H84.65v2.42H82.23v4.84H79.81v4.76h2.42v4.84h2.42v2.42h7.18V56.41H89.41V51.57H87v-.08h2.42V46.66h2.42V41.89Z"/><path d="M110.11,47.9v2.42h-7.26V47.9h7.26m-9.68,0v2.42h2.42v2.42h-2.42V60H95.59V47.9h4.84m10.85-1.17h-9.6v2.42h-.08V46.73H94.42V61.17h7.18V53.91H104V51.49h7.26V46.73Z"/><path d="M125.88,47.9v2.42h2.42v4.84H116.2v2.42h9.68V60h-12.1V57.58h-2.42V50.32h2.42V47.9h12.1m-9.68,4.84h7.26V50.32H116.2v2.42m10.85-6H112.61v2.42h-2.42v9.6h2.42v2.42h14.44V56.41h-9.68v-.08h12.1V49.15h-2.42V46.73Zm-9.68,4.76h4.92v.08h-4.92v-.08Z"/><path d="M147.65,43.07V60h-4.84V55.16h-2.42V52.74H138V50.32h-2.42V60h-4.83V43.07h4.83v2.41H138V47.9h2.42v2.42h2.42V43.07h4.84m1.17-1.18h-7.18v7.26h-.08V46.73h-2.42V44.31h-2.41V41.89h-7.18V61.17h7.18V51.49h.07v2.42h2.42v2.42h2.42v4.84h7.18V41.89Z"/><path d="M167.39,43.07v2.41h-12.1v4.84H165v2.42h-9.68V60h-4.83V43.07h16.93m1.17-1.18H149.29V61.17h7.18V53.91h9.67V49.15h-9.67V46.66h12.09V41.89Z"/><path d="M184,43.07v2.41h-4.84V60h-4.83V45.48h-4.84V43.07H184m1.17-1.18H168.35v4.77h4.83V61.17h7.18V46.66h4.84V41.89Z"/><path d="M193.32,43.07v2.41h2.42v4.84h2.42v2.42h-2.42v4.84h-2.42V60h-4.84V57.58h2.42V52.74h2.42V50.32H190.9V45.48h-2.42V43.07h4.84m1.17-1.18h-7.18v4.77h2.42v4.83h2.42v.08h-2.42v4.84h-2.42v4.76h7.18V58.75h2.42V53.91h2.42V49.15h-2.42V44.31h-2.42V41.89Z"/><path d="M85.82,60V57.58H83.4V52.74H81V50.32H83.4V45.48h2.42V43.07h4.84v2.41H88.24v4.84H85.82v2.42h2.42v4.84h2.42V60Z"/><path d="M100.43,50.32h2.42v2.42h-2.42V60H95.59V47.9h4.84Zm9.68-2.42v2.42h-7.26V47.9Z"/><path d="M113.78,60V57.58h-2.42V50.32h2.42V47.9h12.1v2.42h2.42v4.84H116.2v2.42h9.68V60Zm2.42-7.26h7.26V50.32H116.2Z"/><path d="M130.72,60V43.07h4.83v2.41H138V47.9h2.42v2.42h2.42V43.07h4.84V60h-4.84V55.16h-2.42V52.74H138V50.32h-2.42V60Z"/><path d="M150.46,60V43.07h16.93v2.41h-12.1v4.84H165v2.42h-9.68V60Z"/><path d="M174.36,60V45.48h-4.84V43.07H184v2.41h-4.84V60Z"/><path d="M188.48,60V57.58h2.42V52.74h2.42V50.32H190.9V45.48h-2.42V43.07h4.84v2.41h2.42v4.84h2.42v2.42h-2.42v4.84h-2.42V60Z"/><path d="M88.61,41v2.41H86.19v4.84H83.77v2.42h2.42v4.84h2.42V58H83.77V55.53H81.35V50.69H78.93V48.27h2.42V43.43h2.42V41h4.84m1.17-1.18H82.6v2.42H80.18V47.1H77.76v4.76h2.42V56.7H82.6v2.42h7.18V54.36H87.36V49.52H84.94v-.08h2.42V44.61h2.42V39.84Z"/><path d="M108.06,45.85v2.42H100.8V45.85h7.26m-9.68,0v2.42h2.42v2.42H98.38V58H93.54V45.85h4.84m10.85-1.17h-9.6V47.1h-.08V44.68H92.37V59.12h7.18V51.86H102V49.44h7.26V44.68Z"/><path d="M123.83,45.85v2.42h2.42v4.84h-12.1v2.42h9.68V58h-12.1V55.53h-2.41V48.27h2.41V45.85h12.1m-9.68,4.84h7.26V48.27h-7.26v2.42m10.85-6H110.56V47.1h-2.42v9.6h2.42v2.42H125V54.36h-9.68v-.08h12.1V47.1H125V44.68Zm-9.68,4.76h4.92v.08h-4.92v-.08Z"/><path d="M145.6,41V58h-4.84V53.11h-2.42V50.69h-2.42V48.27h-2.41V58h-4.84V41h4.84v2.41h2.41v2.42h2.42v2.42h2.42V41h4.84m1.17-1.18h-7.18V47.1h-.08V44.68H137.1V42.26h-2.42V39.84H127.5V59.12h7.18V49.44h.07v2.42h2.42v2.42h2.42v4.84h7.18V39.84Z"/><path d="M165.34,41v2.41h-12.1v4.84h9.68v2.42h-9.68V58h-4.83V41h16.93m1.17-1.18H147.24V59.12h7.18V51.86h9.67V47.1h-9.67V44.61h12.09V39.84Z"/><path d="M182,41v2.41h-4.84V58h-4.83V43.43h-4.84V41H182m1.17-1.18H166.3v4.77h4.84V59.12h7.18V44.61h4.83V39.84Z"/><path d="M191.27,41v2.41h2.42v4.84h2.42v2.42h-2.42v4.84h-2.42V58h-4.84V55.53h2.42V50.69h2.42V48.27h-2.42V43.43h-2.42V41h4.84m1.17-1.18h-7.18v4.77h2.42v4.83h2.42v.08h-2.42v4.84h-2.42v4.76h7.18V56.7h2.42V51.86h2.42V47.1h-2.42V42.26h-2.42V39.84Z"/><path class="cls-2" d="M83.77,58V55.53H81.35V50.69H78.93V48.27h2.42V43.43h2.42V41h4.84v2.41H86.19v4.84H83.77v2.42h2.42v4.84h2.42V58Z"/><path class="cls-2" d="M98.38,48.27h2.42v2.42H98.38V58H93.54V45.85h4.84Zm9.68-2.42v2.42H100.8V45.85Z"/><path class="cls-2" d="M111.73,58V55.53h-2.41V48.27h2.41V45.85h12.1v2.42h2.42v4.84h-12.1v2.42h9.68V58Zm2.42-7.26h7.26V48.27h-7.26Z"/><path class="cls-2" d="M128.67,58V41h4.84v2.41h2.41v2.42h2.42v2.42h2.42V41h4.84V58h-4.84V53.11h-2.42V50.69h-2.42V48.27h-2.41V58Z"/><path class="cls-2" d="M148.41,58V41h16.93v2.41h-12.1v4.84h9.68v2.42h-9.68V58Z"/><path class="cls-2" d="M172.31,58V43.43h-4.84V41H182v2.41h-4.84V58Z"/><path class="cls-2" d="M186.43,58V55.53h2.42V50.69h2.42V48.27h-2.42V43.43h-2.42V41h4.84v2.41h2.42v4.84h2.42v2.42h-2.42v4.84h-2.42V58Z"/><text class="cls-3" transform="translate(25.88 86.34)">Community-Call #1</text><rect x="32" y="106.95" width="220.46" height="35.5"/><path d="M251.6,107.81v33.78H32.87V107.81H251.6m1.72-1.72H31.14v37.22H253.32V106.09Z"/><rect class="cls-4" x="28.98" y="103.93" width="220.46" height="35.5"/><path d="M248.57,104.79v33.77H29.84V104.79H248.57m1.73-1.73H28.12v37.23H250.3V103.06Z"/><text class="cls-5" transform="translate(43.44 127)">Monday, March 15th, 7PM GMT</text></g></svg>