<svg xmlns="http://www.w3.org/2000/svg" xmlns:xlink="http://www.w3.org/1999/xlink" viewBox="0 0 280 160"><defs><style>.cls-1{fill:url(#linear-gradient);}.cls-2{fill:url(#linear-gradient-2);}.cls-3{fill:#fff;}</style><linearGradient id="linear-gradient" x1="138.54" y1="132.9" x2="138.54" y2="16.98" gradientUnits="userSpaceOnUse"><stop offset="0" stop-color="#009b8a"/><stop offset="0" stop-color="#6657a0"/><stop offset="0.51" stop-color="#c8329e"/><stop offset="1" stop-color="#f44074"/></linearGradient><linearGradient id="linear-gradient-2" x1="136.91" y1="72.22" x2="136.91" y2="44.12" gradientUnits="userSpaceOnUse"><stop offset="0" stop-color="#96c"/><stop offset="1" stop-color="#d0a2ff"/></linearGradient></defs><g id="Layer_1" data-name="Layer 1"><rect x="10.78" y="20.11" width="261.79" height="115.92"/><path d="M271.67,21V135.14h-260V21h260m1.8-1.79H9.88V136.93H273.47V19.22Z"/><rect class="cls-1" x="7.64" y="16.98" width="261.79" height="115.92"/><path d="M268.54,17.87V132H8.54V17.87h260m1.79-1.79H6.75V133.79H270.33V16.08Z"/><path d="M61.67,47.26v3.88H57.78v7.77H53.9v3.88h3.88v7.77h3.89v3.88H53.9V70.56H50V62.79H46.13V58.91H50V51.14H53.9V47.26h7.77m1.88-1.88H52v3.88H48.14V57H44.25v7.64h3.89v7.77H52v3.88H63.55V68.68H59.66V60.91H55.78v-.12h3.88V53h3.89V45.38Z"/><path d="M92.89,55v3.89H81.24V55H92.89M77.36,55v3.89h3.88v3.88H77.36V74.44H69.59V55h7.77m17.41-1.88H79.36V57h-.12V53.14H67.71V76.32H79.24V64.67h3.88V60.79H94.77V53.14Z"/><path d="M118.21,55v3.89h3.89v7.77H102.68v3.88h15.53v3.88H98.8V70.56H94.91V58.91H98.8V55h19.41m-15.53,7.77h11.65V58.91H102.68v3.88m17.41-9.65H96.92V57H93V72.44h3.89v3.88h23.17V68.68H104.56v-.12H124V57h-3.89V53.14Zm-15.53,7.65h7.89v.12h-7.89v-.12Z"/><path d="M153.17,47.26V74.44H145.4V66.68h-3.88V62.79h-3.89V58.91h-3.88V74.44H126V47.26h7.77v3.88h3.88V55h3.89v3.89h3.88V47.26h7.77m1.88-1.88H143.52V57h-.12V53.14h-3.89V49.26h-3.88V45.38H124.1V76.32h11.53V60.79h.12v3.88h3.89v3.89h3.88v7.76h11.53V45.38Z"/><path d="M184.86,47.26v3.88H165.44v7.77H181v3.88H165.44V74.44h-7.77V47.26h27.19m1.88-1.88h-31V76.32h11.53V64.67h15.54V57H167.32V53h19.42V45.38Z"/><path d="M211.58,47.26v3.88h-7.77v23.3H196V51.14h-7.76V47.26h23.3m1.88-1.88H186.4V53h7.76v23.3h11.53V53h7.77V45.38Z"/><path d="M226.49,47.26v3.88h3.89v7.77h3.88v3.88h-3.88v7.77h-3.89v3.88h-7.76V70.56h3.88V62.79h3.88V58.91h-3.88V51.14h-3.88V47.26h7.76m1.88-1.88H216.85V53h3.88v7.77h3.88v.12h-3.88v7.77h-3.88v7.64h11.52V72.44h3.89V64.67h3.88V57h-3.88V49.26h-3.89V45.38Z"/><path d="M53.9,74.44V70.56H50V62.79H46.13V58.91H50V51.14H53.9V47.26h7.77v3.88H57.78v7.77H53.9v3.88h3.88v7.77h3.89v3.88Z"/><path d="M77.36,58.91h3.88v3.88H77.36V74.44H69.59V55h7.77ZM92.89,55v3.89H81.24V55Z"/><path d="M98.8,74.44V70.56H94.91V58.91H98.8V55h19.41v3.89h3.89v7.77H102.68v3.88h15.53v3.88Zm3.88-11.65h11.65V58.91H102.68Z"/><path d="M126,74.44V47.26h7.77v3.88h3.88V55h3.89v3.89h3.88V47.26h7.77V74.44H145.4V66.68h-3.88V62.79h-3.89V58.91h-3.88V74.44Z"/><path d="M157.67,74.44V47.26h27.19v3.88H165.44v7.77H181v3.88H165.44V74.44Z"/><path d="M196,74.44V51.14h-7.76V47.26h23.3v3.88h-7.77v23.3Z"/><path d="M218.73,74.44V70.56h3.88V62.79h3.88V58.91h-3.88V51.14h-3.88V47.26h7.76v3.88h3.89v7.77h3.88v3.88h-3.88v7.77h-3.89v3.88Z"/><path d="M58.38,44v3.88H54.49v7.77H50.61V59.5h3.88v7.77h3.89v3.88H50.61V67.27H46.73V59.5H42.84V55.62h3.89V47.85h3.88V44h7.77m1.88-1.88H48.73V46H44.85v7.77H41v7.64h3.89v7.77h3.88V73H60.26V65.39H56.37V57.62H52.49V57.5h3.88V49.73h3.89V42.09Z"/><path d="M89.6,51.73v3.89H78V51.73H89.6m-15.53,0v3.89H78V59.5H74.07V71.15H66.3V51.73h7.77m17.41-1.88H76.07v3.89H76V49.85H64.42V73H76V61.38h3.88V57.5H91.48V49.85Z"/><path d="M114.92,51.73v3.89h3.89v7.76H99.39v3.89h15.53v3.88H95.51V67.27H91.62V55.62h3.89V51.73h19.41M99.39,59.5H111V55.62H99.39V59.5m17.41-9.65H93.63v3.89H89.74V69.15h3.89V73H116.8V65.39H101.27v-.12h19.42V53.74H116.8V49.85ZM101.27,57.5h7.89v.12h-7.89V57.5Z"/><path d="M149.88,44V71.15h-7.77V63.38h-3.88V59.5h-3.89V55.62h-3.88V71.15h-7.77V44h7.77v3.88h3.88v3.88h3.89v3.89h3.88V44h7.77m1.88-1.88H140.23V53.74h-.12V49.85h-3.89V46h-3.88V42.09H120.81V73h11.53V57.5h.12v3.88h3.89v3.89h3.88V73h11.53V42.09Z"/><path d="M181.57,44v3.88H162.15v7.77h15.54V59.5H162.15V71.15h-7.77V44h27.19m1.88-1.88H152.5V73H164V61.38h15.54V53.74H164v-4h19.42V42.09Z"/><path d="M208.29,44v3.88h-7.77v23.3h-7.77V47.85H185V44h23.3m1.88-1.88H183.11v7.64h7.76V73H202.4V49.73h7.77V42.09Z"/><path d="M223.2,44v3.88h3.89v7.77H231V59.5h-3.88v7.77H223.2v3.88h-7.76V67.27h3.88V59.5h3.88V55.62h-3.88V47.85h-3.88V44h7.76m1.88-1.88H213.55v7.64h3.89V57.5h3.88v.12h-3.88v7.77h-3.89V73h11.53V69.15H229V61.38h3.88V53.74H229V46h-3.89V42.09Z"/><path class="cls-2" d="M50.61,71.15V67.27H46.73V59.5H42.84V55.62h3.89V47.85h3.88V44h7.77v3.88H54.49v7.77H50.61V59.5h3.88v7.77h3.89v3.88Z"/><path class="cls-2" d="M74.07,55.62H78V59.5H74.07V71.15H66.3V51.73h7.77ZM89.6,51.73v3.89H78V51.73Z"/><path class="cls-2" d="M95.51,71.15V67.27H91.62V55.62h3.89V51.73h19.41v3.89h3.89v7.76H99.39v3.89h15.53v3.88ZM99.39,59.5H111V55.62H99.39Z"/><path class="cls-2" d="M122.69,71.15V44h7.77v3.88h3.88v3.88h3.89v3.89h3.88V44h7.77V71.15h-7.77V63.38h-3.88V59.5h-3.89V55.62h-3.88V71.15Z"/><path class="cls-2" d="M154.38,71.15V44h27.19v3.88H162.15v7.77h15.54V59.5H162.15V71.15Z"/><path class="cls-2" d="M192.75,71.15V47.85H185V44h23.3v3.88h-7.77v23.3Z"/><path class="cls-2" d="M215.44,71.15V67.27h3.88V59.5h3.88V55.62h-3.88V47.85h-3.88V44h7.76v3.88h3.89v7.77H231V59.5h-3.88v7.77H223.2v3.88Z"/><path class="cls-3" d="M29.19,107.68V106H27.53v-1.66H25.88v-5h1.65V97.74h1.66V96.09h6.63v1.65h1.65V99.4H34.16V97.74H30.85V99.4H29.19v5h1.66V106h3.31v-1.66h3.31V106H35.82v1.65Z"/><path class="cls-3" d="M40.79,107.68V106H39.13v-5h1.66V99.4h8.28v1.66h1.66v5H49.07v1.65ZM42.44,106h5v-5h-5Z"/><path class="cls-3" d="M52.38,107.68V99.4h9.95v1.66H64v6.62H60.67v-6.62H59v6.62H55.7v-6.62H54v6.62Z"/><path class="cls-3" d="M65.64,107.68V99.4h9.94v1.66h1.66v6.62H73.92v-6.62H72.27v6.62H69v-6.62H67.3v6.62Z"/><path class="cls-3" d="M80.55,107.68V106H78.89V99.4h3.32V106h5V99.4h3.31v8.28Z"/><path class="cls-3" d="M92.15,107.68V99.4h9.94v1.66h1.66v6.62h-3.32v-6.62h-5v6.62Z"/><path class="cls-3" d="M107.06,107.68V106h3.31v-5h-1.65V99.4h5V106H117v1.65Zm3.31-9.94V96.09h3.32v1.65Z"/><path class="cls-3" d="M123.63,107.68v-6.62h-3.32V99.4h3.32V96.09h3.31V99.4h3.31v1.66h-3.31v6.62Z"/><path class="cls-3" d="M133.57,109.34v-1.66h6.62V106h-6.62v-1.66h-1.66v-5h3.31v5h5v-5h3.32v8.28h-1.66v1.66Z"/><path class="cls-3" d="M146.82,102.71v-1.65h9.94v1.65Z"/><path class="cls-3" d="M161.73,107.68V106h-1.65v-1.66h-1.66v-5h1.66V97.74h1.65V96.09h6.63v1.65H170V99.4H166.7V97.74h-3.31V99.4h-1.66v5h1.66V106h3.31v-1.66H170V106h-1.66v1.65Z"/><path class="cls-3" d="M173.33,107.68V106h-1.66v-1.66h1.66v-1.66H180v-1.65h-6.63V99.4h8.28v1.66h1.66v6.62ZM175,106h5v-1.66h-5Z"/><path class="cls-3" d="M186.58,107.68V106h3.32V97.74h-1.66V96.09h5V106h3.31v1.65Z"/><path class="cls-3" d="M199.84,107.68V106h3.31V97.74H201.5V96.09h5V106h3.31v1.65Z"/><path class="cls-3" d="M226.35,107.68V106h-1.66v-1.66h1.66v-5h-1.66V97.74h1.66V96.09h3.31v1.65h1.66V96.09h3.31v1.65h1.66V99.4h-1.66v5h1.66V106h-1.66v1.65h-3.31V106h-1.66v1.65Zm3.31-3.31h1.66v-5h-1.66Z"/><path class="cls-3" d="M239.6,107.68V106h3.31V99.4h-1.65V97.74h1.65V96.09h3.32V106h3.31v1.65Z"/></g></svg>